<svg width="58" height="58" viewBox="0 0 58 58" fill="none" xmlns="http://www.w3.org/2000/svg">
<path d="M30.4524 52.6809C34.9474 48.7998 48.3333 36.2331 48.3333 24.1667C48.3333 19.0392 46.2964 14.1216 42.6707 10.4959C39.045 6.87023 34.1275 4.83334 29 4.83334C23.8725 4.83334 18.955 6.87023 15.3293 10.4959C11.7036 14.1216 9.66667 19.0392 9.66667 24.1667C9.66667 36.2331 23.0526 48.7998 27.5476 52.6809C27.9663 52.9958 28.4761 53.1661 29 53.1661C29.5239 53.1661 30.0337 52.9958 30.4524 52.6809Z" fill="#FFC39E" stroke="#92400E" stroke-width="2" stroke-linecap="round" stroke-linejoin="round"/>
<path d="M28 14V16" stroke="#92400E" stroke-width="2" stroke-linecap="round" stroke-linejoin="round"/>
<path d="M32 14V16" stroke="#92400E" stroke-width="2" stroke-linecap="round" stroke-linejoin="round"/>
<path d="M34 20C34.2652 20 34.5196 20.1054 34.7071 20.2929C34.8946 20.4804 35 20.7348 35 21V29C35 30.0609 34.5786 31.0783 33.8284 31.8284C33.0783 32.5786 32.0609 33 31 33H25C23.9391 33 22.9217 32.5786 22.1716 31.8284C21.4214 31.0783 21 30.0609 21 29V21C21 20.7348 21.1054 20.4804 21.2929 20.2929C21.4804 20.1054 21.7348 20 22 20H36C37.0609 20 38.0783 20.4214 38.8284 21.1716C39.5786 21.9217 40 22.9391 40 24C40 25.0609 39.5786 26.0783 38.8284 26.8284C38.0783 27.5786 37.0609 28 36 28H35" stroke="#92400E" stroke-width="2" stroke-linecap="round" stroke-linejoin="round"/>
<path d="M24 14V16" stroke="#92400E" stroke-width="2" stroke-linecap="round" stroke-linejoin="round"/>
</svg>
