<svg width="58" height="58" viewBox="0 0 58 58" fill="none" xmlns="http://www.w3.org/2000/svg">
<path d="M30.4524 52.6809C34.9474 48.7998 48.3333 36.2331 48.3333 24.1667C48.3333 19.0392 46.2964 14.1216 42.6707 10.4959C39.045 6.87023 34.1275 4.83334 29 4.83334C23.8725 4.83334 18.955 6.87023 15.3293 10.4959C11.7036 14.1216 9.66667 19.0392 9.66667 24.1667C9.66667 36.2331 23.0526 48.7998 27.5476 52.6809C27.9663 52.9958 28.4761 53.1661 29 53.1661C29.5239 53.1661 30.0337 52.9958 30.4524 52.6809Z" fill="#FFC39E" stroke="#403AED" stroke-width="2" stroke-linecap="round" stroke-linejoin="round"/>
<path d="M26.204 34C25.1773 34 24.3487 33.692 23.718 33.076C23.102 32.4453 22.794 31.6167 22.794 30.59V24.32H20.726V21.46H22.794V18.16H26.358V21.46H28.91V24.32H26.358V29.974C26.358 30.2527 26.446 30.48 26.622 30.656C26.798 30.832 27.018 30.92 27.282 30.92H29.284V34H26.204Z" fill="#92400E"/>
<path d="M32.5751 20.096C32.0031 20.096 31.5191 19.9273 31.1231 19.59C30.7417 19.2527 30.5511 18.8127 30.5511 18.27C30.5511 17.742 30.7417 17.3093 31.1231 16.972C31.5191 16.6347 32.0031 16.466 32.5751 16.466C33.1324 16.466 33.6017 16.6347 33.9831 16.972C34.3791 17.3093 34.5771 17.742 34.5771 18.27C34.5771 18.8127 34.3791 19.2527 33.9831 19.59C33.6017 19.9273 33.1324 20.096 32.5751 20.096ZM30.7931 34V21.46H34.3571V34H30.7931Z" fill="#403AED"/>
</svg>
