<svg width="97" height="29" viewBox="0 0 97 29" fill="none" xmlns="http://www.w3.org/2000/svg">
<path d="M5.104 23V9.932H0.44V6.5H13.64V9.932H8.976V23H5.104ZM19.7551 23.33C18.6551 23.33 17.6725 23.0953 16.8071 22.626C15.9565 22.1567 15.2891 21.5113 14.8051 20.69C14.3211 19.854 14.0791 18.9007 14.0791 17.83V10.46H17.6431V17.962C17.6431 18.6367 17.8411 19.1867 18.2371 19.612C18.6331 20.0373 19.1391 20.25 19.7551 20.25C20.3711 20.25 20.8771 20.0373 21.2731 19.612C21.6691 19.1867 21.8671 18.6367 21.8671 17.962V10.46H25.4311V17.83C25.4311 18.9007 25.1891 19.854 24.7051 20.69C24.2211 21.5113 23.5538 22.1567 22.7031 22.626C21.8525 23.0953 20.8698 23.33 19.7551 23.33ZM33.6397 23.33C32.3931 23.33 31.2857 23.0513 30.3177 22.494C29.3497 21.9367 28.5871 21.1667 28.0297 20.184C27.4871 19.1867 27.2157 18.05 27.2157 16.774C27.2157 15.4687 27.4871 14.3173 28.0297 13.32C28.5871 12.3227 29.3497 11.5453 30.3177 10.988C31.2857 10.416 32.3931 10.13 33.6397 10.13C34.9011 10.13 36.0084 10.416 36.9617 10.988C37.9297 11.5453 38.6851 12.3227 39.2277 13.32C39.7851 14.3173 40.0637 15.4687 40.0637 16.774C40.0637 18.05 39.7851 19.1867 39.2277 20.184C38.6851 21.1667 37.9297 21.9367 36.9617 22.494C36.0084 23.0513 34.9011 23.33 33.6397 23.33ZM33.6397 20.25C34.4611 20.25 35.1284 19.9273 35.6417 19.282C36.1697 18.6367 36.4337 17.8007 36.4337 16.774C36.4337 15.718 36.1697 14.86 35.6417 14.2C35.1284 13.54 34.4611 13.21 33.6397 13.21C32.8184 13.21 32.1437 13.54 31.6157 14.2C31.1024 14.86 30.8457 15.718 30.8457 16.774C30.8457 17.8007 31.1024 18.6367 31.6157 19.282C32.1437 19.9273 32.8184 20.25 33.6397 20.25ZM41.8799 23V15.63C41.8799 14.5007 42.1073 13.5253 42.5619 12.704C43.0313 11.8827 43.6913 11.252 44.5419 10.812C45.3926 10.3573 46.3973 10.13 47.5559 10.13C48.7146 10.13 49.7193 10.3573 50.5699 10.812C51.4206 11.252 52.0733 11.8827 52.5279 12.704C52.9973 13.5253 53.2319 14.5007 53.2319 15.63V23H49.6679V15.674C49.6679 14.882 49.4699 14.2733 49.0739 13.848C48.6926 13.4227 48.1866 13.21 47.5559 13.21C46.9399 13.21 46.4339 13.4227 46.0379 13.848C45.6419 14.2733 45.4439 14.882 45.4439 15.674V23H41.8799Z" fill="#92400E"/>
<path d="M57.3695 23.33C56.7241 23.33 56.1888 23.132 55.7635 22.736C55.3381 22.3253 55.1255 21.8047 55.1255 21.174C55.1255 20.558 55.3381 20.052 55.7635 19.656C56.1888 19.2453 56.7241 19.04 57.3695 19.04C58.0148 19.04 58.5428 19.2453 58.9535 19.656C59.3788 20.052 59.5915 20.558 59.5915 21.174C59.5915 21.8047 59.3788 22.3253 58.9535 22.736C58.5428 23.132 58.0148 23.33 57.3695 23.33Z" fill="#1E1E1E"/>
<path d="M61.7198 23V6.5H65.6138V23H61.7198ZM68.8741 23V6.5H72.7461V19.59H79.9841V23H68.8741Z" fill="#403AED"/>
<path d="M87.9758 22.2575C89.4483 20.9861 93.8333 16.8695 93.8333 12.9167C93.8333 11.237 93.1661 9.62606 91.9783 8.43833C90.7906 7.2506 89.1797 6.58334 87.5 6.58334C85.8203 6.58334 84.2094 7.2506 83.0217 8.43833C81.8339 9.62606 81.1667 11.237 81.1667 12.9167C81.1667 16.8695 85.5517 20.9861 87.0242 22.2575C87.1614 22.3607 87.3284 22.4165 87.5 22.4165C87.6716 22.4165 87.8386 22.3607 87.9758 22.2575Z" stroke="#403AED" stroke-width="2" stroke-linecap="round" stroke-linejoin="round"/>
<path d="M87.5 15.2917C88.8117 15.2917 89.875 14.2283 89.875 12.9167C89.875 11.605 88.8117 10.5417 87.5 10.5417C86.1883 10.5417 85.125 11.605 85.125 12.9167C85.125 14.2283 86.1883 15.2917 87.5 15.2917Z" stroke="#403AED" stroke-width="2" stroke-linecap="round" stroke-linejoin="round"/>
</svg>
