<svg width="58" height="58" viewBox="0 0 58 58" fill="none" xmlns="http://www.w3.org/2000/svg">
<path d="M30.4524 52.6809C34.9474 48.7998 48.3333 36.2331 48.3333 24.1667C48.3333 19.0392 46.2964 14.1216 42.6707 10.4959C39.045 6.87024 34.1275 4.83334 29 4.83334C23.8725 4.83334 18.955 6.87024 15.3293 10.4959C11.7036 14.1216 9.66667 19.0392 9.66667 24.1667C9.66667 36.2331 23.0526 48.7998 27.5476 52.6809C27.9663 52.9958 28.4761 53.1661 29 53.1661C29.5239 53.1661 30.0337 52.9958 30.4524 52.6809Z" fill="#D9C3FF" stroke="#7C3AED" stroke-width="2" stroke-linecap="round" stroke-linejoin="round"/>
<path d="M22.3333 30.25V17.75C22.3333 17.1975 22.5528 16.6676 22.9435 16.2769C23.3342 15.8862 23.8641 15.6667 24.4167 15.6667H34.8333C35.0543 15.6667 35.2663 15.7545 35.4226 15.9107C35.5789 16.067 35.6667 16.279 35.6667 16.5V31.5C35.6667 31.721 35.5789 31.933 35.4226 32.0893C35.2663 32.2455 35.0543 32.3333 34.8333 32.3333H24.4167C23.8641 32.3333 23.3342 32.1138 22.9435 31.7231C22.5528 31.3324 22.3333 30.8025 22.3333 30.25ZM22.3333 30.25C22.3333 29.6975 22.5528 29.1676 22.9435 28.7769C23.3342 28.3862 23.8641 28.1667 24.4167 28.1667H35.6667" stroke="#7C3AED" stroke-width="2" stroke-linecap="round" stroke-linejoin="round"/>
</svg>
